<mxfile host="app.diagrams.net" modified="2024-01-16T16:22:54.369Z" agent="Mozilla/5.0 (Macintosh; Intel Mac OS X 10_15_7) AppleWebKit/537.36 (KHTML, like Gecko) Chrome/120.0.0.0 Safari/537.36" etag="cLa7Lx7p3d2uWC0bTyeS" version="22.1.19" type="github">
  <diagram name="Page-1" id="WU8PZig4gAyiJtW_SQf5">
    <mxGraphModel dx="1781" dy="496" grid="1" gridSize="10" guides="1" tooltips="1" connect="1" arrows="1" fold="1" page="1" pageScale="1" pageWidth="827" pageHeight="1169" math="0" shadow="0">
      <root>
        <mxCell id="0" />
        <mxCell id="1" parent="0" />
        <mxCell id="KWsMf6O9RuHubpmSAVzN-8" value="" style="rounded=0;orthogonalLoop=1;jettySize=auto;html=1;endArrow=none;endFill=0;" edge="1" parent="1" source="KWsMf6O9RuHubpmSAVzN-1" target="KWsMf6O9RuHubpmSAVzN-6">
          <mxGeometry relative="1" as="geometry" />
        </mxCell>
        <mxCell id="KWsMf6O9RuHubpmSAVzN-1" value="Final goal" style="rounded=1;whiteSpace=wrap;html=1;" vertex="1" parent="1">
          <mxGeometry x="385" y="220" width="120" height="60" as="geometry" />
        </mxCell>
        <mxCell id="KWsMf6O9RuHubpmSAVzN-20" style="edgeStyle=none;shape=connector;rounded=0;orthogonalLoop=1;jettySize=auto;html=1;labelBackgroundColor=default;strokeColor=default;align=center;verticalAlign=middle;fontFamily=Helvetica;fontSize=11;fontColor=default;endArrow=none;endFill=0;" edge="1" parent="1" source="KWsMf6O9RuHubpmSAVzN-4" target="KWsMf6O9RuHubpmSAVzN-18">
          <mxGeometry relative="1" as="geometry" />
        </mxCell>
        <mxCell id="KWsMf6O9RuHubpmSAVzN-21" style="edgeStyle=none;shape=connector;rounded=0;orthogonalLoop=1;jettySize=auto;html=1;labelBackgroundColor=default;strokeColor=default;align=center;verticalAlign=middle;fontFamily=Helvetica;fontSize=11;fontColor=default;endArrow=none;endFill=0;" edge="1" parent="1" source="KWsMf6O9RuHubpmSAVzN-4" target="KWsMf6O9RuHubpmSAVzN-19">
          <mxGeometry relative="1" as="geometry" />
        </mxCell>
        <mxCell id="KWsMf6O9RuHubpmSAVzN-29" style="edgeStyle=none;shape=connector;rounded=0;orthogonalLoop=1;jettySize=auto;html=1;labelBackgroundColor=default;strokeColor=default;align=center;verticalAlign=middle;fontFamily=Helvetica;fontSize=11;fontColor=default;endArrow=none;endFill=0;" edge="1" parent="1" source="KWsMf6O9RuHubpmSAVzN-4" target="KWsMf6O9RuHubpmSAVzN-22">
          <mxGeometry relative="1" as="geometry" />
        </mxCell>
        <mxCell id="KWsMf6O9RuHubpmSAVzN-31" style="edgeStyle=none;shape=connector;rounded=0;orthogonalLoop=1;jettySize=auto;html=1;labelBackgroundColor=default;strokeColor=default;align=center;verticalAlign=middle;fontFamily=Helvetica;fontSize=11;fontColor=default;endArrow=none;endFill=0;" edge="1" parent="1" source="KWsMf6O9RuHubpmSAVzN-5" target="KWsMf6O9RuHubpmSAVzN-41">
          <mxGeometry relative="1" as="geometry">
            <mxPoint x="405.0847457627119" y="380" as="targetPoint" />
          </mxGeometry>
        </mxCell>
        <mxCell id="KWsMf6O9RuHubpmSAVzN-40" value="predict" style="edgeLabel;html=1;align=center;verticalAlign=middle;resizable=0;points=[];fontSize=11;fontFamily=Helvetica;fontColor=default;" vertex="1" connectable="0" parent="KWsMf6O9RuHubpmSAVzN-31">
          <mxGeometry x="-0.1273" y="-1" relative="1" as="geometry">
            <mxPoint y="1" as="offset" />
          </mxGeometry>
        </mxCell>
        <mxCell id="KWsMf6O9RuHubpmSAVzN-4" value="Instrumental goals" style="rounded=1;whiteSpace=wrap;html=1;" vertex="1" parent="1">
          <mxGeometry x="160" y="380" width="120" height="60" as="geometry" />
        </mxCell>
        <mxCell id="KWsMf6O9RuHubpmSAVzN-9" value="" style="edgeStyle=none;shape=connector;rounded=0;orthogonalLoop=1;jettySize=auto;html=1;labelBackgroundColor=default;strokeColor=default;align=center;verticalAlign=middle;fontFamily=Helvetica;fontSize=11;fontColor=default;endArrow=none;endFill=0;" edge="1" parent="1" source="KWsMf6O9RuHubpmSAVzN-5" target="KWsMf6O9RuHubpmSAVzN-1">
          <mxGeometry relative="1" as="geometry" />
        </mxCell>
        <mxCell id="KWsMf6O9RuHubpmSAVzN-11" value="" style="edgeStyle=none;shape=connector;rounded=0;orthogonalLoop=1;jettySize=auto;html=1;labelBackgroundColor=default;strokeColor=default;align=center;verticalAlign=middle;fontFamily=Helvetica;fontSize=11;fontColor=default;endArrow=none;endFill=0;" edge="1" parent="1" source="KWsMf6O9RuHubpmSAVzN-5" target="KWsMf6O9RuHubpmSAVzN-4">
          <mxGeometry relative="1" as="geometry" />
        </mxCell>
        <mxCell id="KWsMf6O9RuHubpmSAVzN-5" value="SI goal" style="ellipse;whiteSpace=wrap;html=1;" vertex="1" parent="1">
          <mxGeometry x="160" y="210" width="120" height="80" as="geometry" />
        </mxCell>
        <mxCell id="KWsMf6O9RuHubpmSAVzN-6" value="Orthogonality thesis" style="text;html=1;strokeColor=none;fillColor=none;align=center;verticalAlign=middle;whiteSpace=wrap;rounded=0;" vertex="1" parent="1">
          <mxGeometry x="560" y="232.5" width="80" height="35" as="geometry" />
        </mxCell>
        <mxCell id="KWsMf6O9RuHubpmSAVzN-13" value="Inheritance (eg WBE)" style="text;html=1;strokeColor=none;fillColor=none;align=center;verticalAlign=middle;whiteSpace=wrap;rounded=0;" vertex="1" parent="1">
          <mxGeometry x="580" y="340" width="80" height="47.5" as="geometry" />
        </mxCell>
        <mxCell id="KWsMf6O9RuHubpmSAVzN-18" value="Goal-content integrity" style="text;html=1;strokeColor=none;fillColor=none;align=center;verticalAlign=middle;whiteSpace=wrap;rounded=0;" vertex="1" parent="1">
          <mxGeometry y="320" width="80" height="35" as="geometry" />
        </mxCell>
        <mxCell id="KWsMf6O9RuHubpmSAVzN-19" value="Self-preservation" style="text;html=1;strokeColor=none;fillColor=none;align=center;verticalAlign=middle;whiteSpace=wrap;rounded=0;" vertex="1" parent="1">
          <mxGeometry y="392.5" width="80" height="35" as="geometry" />
        </mxCell>
        <mxCell id="KWsMf6O9RuHubpmSAVzN-24" style="edgeStyle=none;shape=connector;rounded=0;orthogonalLoop=1;jettySize=auto;html=1;labelBackgroundColor=default;strokeColor=default;align=center;verticalAlign=middle;fontFamily=Helvetica;fontSize=11;fontColor=default;endArrow=none;endFill=0;" edge="1" parent="1" source="KWsMf6O9RuHubpmSAVzN-22" target="KWsMf6O9RuHubpmSAVzN-23">
          <mxGeometry relative="1" as="geometry" />
        </mxCell>
        <mxCell id="KWsMf6O9RuHubpmSAVzN-25" value="reason 1" style="edgeLabel;html=1;align=center;verticalAlign=middle;resizable=0;points=[];fontSize=11;fontFamily=Helvetica;fontColor=default;" vertex="1" connectable="0" parent="KWsMf6O9RuHubpmSAVzN-24">
          <mxGeometry x="-0.0517" y="4" relative="1" as="geometry">
            <mxPoint as="offset" />
          </mxGeometry>
        </mxCell>
        <mxCell id="KWsMf6O9RuHubpmSAVzN-27" style="edgeStyle=none;shape=connector;rounded=0;orthogonalLoop=1;jettySize=auto;html=1;labelBackgroundColor=default;strokeColor=default;align=center;verticalAlign=middle;fontFamily=Helvetica;fontSize=11;fontColor=default;endArrow=none;endFill=0;" edge="1" parent="1" source="KWsMf6O9RuHubpmSAVzN-22" target="KWsMf6O9RuHubpmSAVzN-26">
          <mxGeometry relative="1" as="geometry" />
        </mxCell>
        <mxCell id="KWsMf6O9RuHubpmSAVzN-28" value="reason 2" style="edgeLabel;html=1;align=center;verticalAlign=middle;resizable=0;points=[];fontSize=11;fontFamily=Helvetica;fontColor=default;" vertex="1" connectable="0" parent="KWsMf6O9RuHubpmSAVzN-27">
          <mxGeometry x="-0.1281" y="-3" relative="1" as="geometry">
            <mxPoint as="offset" />
          </mxGeometry>
        </mxCell>
        <mxCell id="KWsMf6O9RuHubpmSAVzN-22" value="Resource acquisition" style="text;html=1;strokeColor=none;fillColor=none;align=center;verticalAlign=middle;whiteSpace=wrap;rounded=0;" vertex="1" parent="1">
          <mxGeometry y="470" width="80" height="35" as="geometry" />
        </mxCell>
        <mxCell id="KWsMf6O9RuHubpmSAVzN-23" value="Any basic resource can be used to pursue goal with the right tech" style="text;html=1;strokeColor=none;fillColor=none;align=center;verticalAlign=middle;whiteSpace=wrap;rounded=0;" vertex="1" parent="1">
          <mxGeometry x="-120" y="555" width="120" height="60" as="geometry" />
        </mxCell>
        <mxCell id="KWsMf6O9RuHubpmSAVzN-26" value="Declining cost of acquisition" style="text;html=1;strokeColor=none;fillColor=none;align=center;verticalAlign=middle;whiteSpace=wrap;rounded=0;" vertex="1" parent="1">
          <mxGeometry x="90" y="570" width="90" height="35" as="geometry" />
        </mxCell>
        <mxCell id="KWsMf6O9RuHubpmSAVzN-33" value="" style="edgeStyle=none;shape=connector;rounded=0;orthogonalLoop=1;jettySize=auto;html=1;labelBackgroundColor=default;strokeColor=default;align=center;verticalAlign=middle;fontFamily=Helvetica;fontSize=11;fontColor=default;endArrow=none;endFill=0;" edge="1" parent="1" source="KWsMf6O9RuHubpmSAVzN-41" target="KWsMf6O9RuHubpmSAVzN-32">
          <mxGeometry relative="1" as="geometry">
            <mxPoint x="430" y="415" as="sourcePoint" />
          </mxGeometry>
        </mxCell>
        <mxCell id="KWsMf6O9RuHubpmSAVzN-34" value="not" style="edgeLabel;html=1;align=center;verticalAlign=middle;resizable=0;points=[];fontSize=11;fontFamily=Helvetica;fontColor=default;" vertex="1" connectable="0" parent="KWsMf6O9RuHubpmSAVzN-33">
          <mxGeometry x="-0.1111" y="3" relative="1" as="geometry">
            <mxPoint as="offset" />
          </mxGeometry>
        </mxCell>
        <mxCell id="KWsMf6O9RuHubpmSAVzN-37" style="edgeStyle=none;shape=connector;rounded=0;orthogonalLoop=1;jettySize=auto;html=1;labelBackgroundColor=default;strokeColor=default;align=center;verticalAlign=middle;fontFamily=Helvetica;fontSize=11;fontColor=default;endArrow=none;endFill=0;" edge="1" parent="1" source="KWsMf6O9RuHubpmSAVzN-41" target="KWsMf6O9RuHubpmSAVzN-1">
          <mxGeometry relative="1" as="geometry">
            <mxPoint x="430" y="380" as="sourcePoint" />
          </mxGeometry>
        </mxCell>
        <mxCell id="KWsMf6O9RuHubpmSAVzN-38" value="independent of" style="edgeLabel;html=1;align=center;verticalAlign=middle;resizable=0;points=[];fontSize=11;fontFamily=Helvetica;fontColor=default;" vertex="1" connectable="0" parent="KWsMf6O9RuHubpmSAVzN-37">
          <mxGeometry x="0.0351" y="-5" relative="1" as="geometry">
            <mxPoint as="offset" />
          </mxGeometry>
        </mxCell>
        <mxCell id="KWsMf6O9RuHubpmSAVzN-32" value="Specific action" style="text;html=1;strokeColor=none;fillColor=none;align=center;verticalAlign=middle;whiteSpace=wrap;rounded=0;" vertex="1" parent="1">
          <mxGeometry x="407.5" y="470" width="75" height="30" as="geometry" />
        </mxCell>
        <mxCell id="KWsMf6O9RuHubpmSAVzN-42" value="" style="edgeStyle=none;shape=connector;rounded=0;orthogonalLoop=1;jettySize=auto;html=1;labelBackgroundColor=default;strokeColor=default;align=center;verticalAlign=middle;fontFamily=Helvetica;fontSize=11;fontColor=default;endArrow=classic;endFill=1;" edge="1" parent="1" source="KWsMf6O9RuHubpmSAVzN-41" target="KWsMf6O9RuHubpmSAVzN-13">
          <mxGeometry relative="1" as="geometry" />
        </mxCell>
        <mxCell id="KWsMf6O9RuHubpmSAVzN-43" value="through" style="edgeLabel;html=1;align=center;verticalAlign=middle;resizable=0;points=[];fontSize=11;fontFamily=Helvetica;fontColor=default;" vertex="1" connectable="0" parent="KWsMf6O9RuHubpmSAVzN-42">
          <mxGeometry x="-0.0545" y="1" relative="1" as="geometry">
            <mxPoint as="offset" />
          </mxGeometry>
        </mxCell>
        <mxCell id="KWsMf6O9RuHubpmSAVzN-44" style="edgeStyle=none;shape=connector;rounded=0;orthogonalLoop=1;jettySize=auto;html=1;labelBackgroundColor=default;strokeColor=default;align=center;verticalAlign=middle;fontFamily=Helvetica;fontSize=11;fontColor=default;endArrow=classic;endFill=1;" edge="1" parent="1" source="KWsMf6O9RuHubpmSAVzN-41" target="KWsMf6O9RuHubpmSAVzN-4">
          <mxGeometry relative="1" as="geometry" />
        </mxCell>
        <mxCell id="KWsMf6O9RuHubpmSAVzN-45" value="through" style="edgeLabel;html=1;align=center;verticalAlign=middle;resizable=0;points=[];fontSize=11;fontFamily=Helvetica;fontColor=default;" vertex="1" connectable="0" parent="KWsMf6O9RuHubpmSAVzN-44">
          <mxGeometry x="0.0841" y="1" relative="1" as="geometry">
            <mxPoint as="offset" />
          </mxGeometry>
        </mxCell>
        <mxCell id="KWsMf6O9RuHubpmSAVzN-47" style="edgeStyle=none;shape=connector;rounded=0;orthogonalLoop=1;jettySize=auto;html=1;labelBackgroundColor=default;strokeColor=default;align=center;verticalAlign=middle;fontFamily=Helvetica;fontSize=11;fontColor=default;endArrow=classic;endFill=1;" edge="1" parent="1" source="KWsMf6O9RuHubpmSAVzN-41" target="KWsMf6O9RuHubpmSAVzN-46">
          <mxGeometry relative="1" as="geometry" />
        </mxCell>
        <mxCell id="KWsMf6O9RuHubpmSAVzN-48" value="through" style="edgeLabel;html=1;align=center;verticalAlign=middle;resizable=0;points=[];fontSize=11;fontFamily=Helvetica;fontColor=default;" vertex="1" connectable="0" parent="KWsMf6O9RuHubpmSAVzN-47">
          <mxGeometry x="-0.1515" y="1" relative="1" as="geometry">
            <mxPoint as="offset" />
          </mxGeometry>
        </mxCell>
        <mxCell id="KWsMf6O9RuHubpmSAVzN-41" value="General behavior" style="rounded=1;whiteSpace=wrap;html=1;" vertex="1" parent="1">
          <mxGeometry x="385" y="380" width="120" height="60" as="geometry" />
        </mxCell>
        <mxCell id="KWsMf6O9RuHubpmSAVzN-46" value="Design" style="text;html=1;strokeColor=none;fillColor=none;align=center;verticalAlign=middle;whiteSpace=wrap;rounded=0;" vertex="1" parent="1">
          <mxGeometry x="580" y="440" width="65" height="30" as="geometry" />
        </mxCell>
      </root>
    </mxGraphModel>
  </diagram>
</mxfile>
